<svg xmlns="http://www.w3.org/2000/svg" viewBox="0 0 612 792"><defs><style>.cls-1{fill:#3b3b3b;}.cls-2,.cls-30{fill:#fff;}.cls-3{fill:#242424;}.cls-4{fill:#c2c2c2;}.cls-5{fill:#d9d9d9;}.cls-6{fill:#262626;}.cls-7{fill:#e8e8e8;}.cls-8{fill:#dedede;}.cls-9{fill:#303030;}.cls-10{fill:#d6d6d6;}.cls-11{fill:#171717;}.cls-12{fill:#919191;}.cls-13{fill:#4f4f4f;}.cls-14{fill:#212121;}.cls-15{fill:#1c1c1c;}.cls-16{fill:#141414;}.cls-17{fill:#333;}.cls-18{fill:#2b2b2b;}.cls-19{fill:#e6e6e6;}.cls-20{fill:#a8a8a8;}.cls-21{fill:#c4c4c4;}.cls-22{fill:gray;}.cls-23{fill:#1f1f1f;}.cls-24{fill:#ababab;}.cls-25{fill:#b5b5b5;}.cls-26{fill:#999;}.cls-27{fill:#454545;}.cls-28{fill:#121212;}.cls-29{fill:#878787;}.cls-30{opacity:0.28;}.cls-31{fill:#292929;}.cls-32{fill:#a6a6a6;}.cls-33{fill:#e0e0e0;}.cls-34{fill:#b8b8b8;}.cls-35{fill:#2e2e2e;}.cls-36{fill:#bfbfbf;}.cls-37{fill:#b0b0b0;}.cls-38{fill:#a1a1a1;}.cls-39{fill:#cfcfcf;}.cls-40{fill:#404040;}.cls-41{fill:#ccc;}.cls-42{fill:#ededed;}.cls-43{fill:#fafafa;}.cls-44{fill:#ebebeb;}.cls-45{fill:#c7c7c7;}</style></defs><title>Artboard 1</title><g id="Layer_3" data-name="Layer 3"><rect class="cls-1" width="612" height="792"/></g><g id="Wing_2" data-name="Wing 2"><polygon class="cls-2" points="129.25 402.11 90.5 435.63 143.18 415.9 154.25 402.25 129.25 402.11"/><polygon class="cls-3" points="119.5 416 124.75 416 127.28 421.86 122.38 423.69 121 422.25 115.25 422.25 113.99 415.31 118.17 411.7 119.5 416"/><polygon class="cls-4" points="165.75 436.21 152.5 430.69 258.05 354.22 261.25 371.25 215 407.16 165.75 436.21"/><polygon class="cls-5" points="124.75 396 135.25 410.25 255.37 347.5 249.21 338.63 124.75 396"/><polygon class="cls-6" points="126.66 352.5 49.25 393 131.26 393 205.3 361.95 126.66 352.5"/><polygon class="cls-2" points="123.09 371.25 98.25 376.5 74.75 387.52 85.5 389.6 138.59 374.44 133.25 369 123.09 371.25"/><polygon class="cls-4" points="139.25 420.75 153.5 424.69 259.5 359.56 255.37 347.5 154.25 402.25 139.25 420.75"/><path class="cls-7" d="M285.5,306s-.25,13.25-42.75,28.25c0,0,15.75,4.5,18.5,37L298,341.75l-3.75-7S310.75,317.75,285.5,306Z"/><path class="cls-8" d="M301.5,345.25l-3.5-3.5-3.75-7S310.75,318,285.5,306l33.33-18.88s7.69,8.81,11.94,23.82l-9.77,12Z"/><path class="cls-2" d="M294.25,334.75s24.65-10.23,34.5-31.08c0,0-3.09-11.94-9.92-16.55L285.5,306S309.5,316.25,294.25,334.75Z"/><path class="cls-9" d="M285.5,306s-2.25,28.25-20.25,39.25a101.35,101.35,0,0,0,34.3-23.57S300.5,312,285.5,306Z"/><path class="cls-2" d="M188.5,338.63,179,352.5l44.5-6.94,25.71-6.94a10.29,10.29,0,0,0-6.46-4.37C238.5,333.5,188.5,338.63,188.5,338.63Z"/><polygon class="cls-2" points="123.5 346.5 131 360.75 249.21 338.63 242.75 334.25 140.75 341.5 123.5 346.5"/><polygon class="cls-5" points="119.5 362.5 125.25 376.5 251.37 341.07 242.75 334.25 119.5 362.5"/><path class="cls-2" d="M150.5,386.55,133.25,369l116-30.37s4.91,2.63,5,6.63L213,358.75Z"/><polygon class="cls-2" points="139.25 399.38 147.25 408.75 258.05 354.22 255.37 347.5 139.25 399.38"/><polygon class="cls-10" points="155.75 414.25 165 422.25 261.25 371.25 259.5 359.56 155.75 414.25"/><polygon class="cls-11" points="143.69 421.98 113.99 467.25 177.59 439.11 200.38 403.51 143.69 421.98"/><polygon class="cls-2" points="141.75 435 130.5 455.75 146.75 447.67 150.5 427.02 141.75 435"/></g><g id="Head_and_Neck" data-name="Head and Neck"><path class="cls-12" d="M402.25,280.31s-13.42-23.81-55.59-32.94l-2.81,9.68S401.25,273,391.5,375.5l-4.75,15.83s3.5-2.33,24.75,13.17C411.5,404.5,432,358,402.25,280.31Z"/><path class="cls-13" d="M390,117.75s-120,96-129.75,112.75H285.5s-26.75,26.75-30.5,84.25l6.75,15.75,5.78-43.56,10.22-17.69,7-9.5s-2.5-21.5,12-35.62l22-12.87,18.75-38Z"/><path class="cls-2" d="M331.75,240.25s-18-22,11.25-67.75l47-54.75-52.5,55.5-18.75,38-22,12.88s-15.28,12-12,35.63c0,0,5.75-7,16.75-4.75,0,0,9.25-4.5,18.5-2.5A27.85,27.85,0,0,0,331.75,240.25Z"/><path class="cls-2" d="M237,261.25l23.25-30.75H285.5l-11,15.38h-2.24l5.5-9.62L275,233.5s2.25,2.5-3.25,9.75L261.25,249l-22,15.25Z"/><path class="cls-2" d="M255,314.75l-10.5-25s1.25,3.5,27.75-43.87h2.24s-10.86,23.53-13.24,31.8C258.65,286.71,255,314.75,255,314.75Z"/><path class="cls-14" d="M239.25,264.25l-3.42,3.25v12.81s3.5,6.19,8.67,9.44c0,0-1,6.17,27.75-43.87l5.5-9.62L275,233.5s1.33,3-3.25,9.75L261.25,249Z"/><path class="cls-9" d="M320,252.5s16.33.82,22.5,9.25l1.36-4.69,2.81-9.68s-8.5-1.87-14.92-7.12a72.62,72.62,0,0,1-5,7.13A70.75,70.75,0,0,1,320,252.5Z"/><path class="cls-15" d="M391.5,280.31S376.17,269,360,275.83l-17.5-14.09,1.36-4.69s16.81,2.6,26.14,4.69S391.5,280.31,391.5,280.31Z"/><path class="cls-16" d="M400.67,303.67s-12.51-24.79-18.59-28.06-19.58-2.1-22.08.23c0,0,7,5,10.83,18.17C370.83,294,380.83,285,400.67,303.67Z"/><path class="cls-17" d="M404,330.5s-11.5-23.5-25.17-18.67l-8-17.83s8-6.48,20.67,2.43C391.5,296.43,399.67,307.83,404,330.5Z"/><path class="cls-3" d="M402.17,352.5s-4.83-18.17-13.33-15.17l-10-25.5s9.31-4.54,18.65,8.65C397.49,320.48,403,339.83,402.17,352.5Z"/><path class="cls-18" d="M391.5,375.5l-1.5-3.17a183.65,183.65,0,0,0-1.17-35s4.53-3.85,9.5,3.67S398.83,366,391.5,375.5Z"/><polygon points="397.67 392 387.42 388.33 390 372.33 391.5 375.5 397.67 392"/><path class="cls-19" d="M301.5,255c100.75,18.59,82,136.33,82,136.33l-23.5-1s13.33-24.83-7.83-78.5h0s-22.59-41.14-76.54-38.9c0,0,6.44-10,9.13-13.18C287.22,256.87,291.44,253.14,301.5,255Z"/><path class="cls-20" d="M352.17,311.83l-18.83,11.29c-5.08-18.37-8-30.57-16-37.4-15.84-13.48-27.84-17.81-37.84-18.85,0,0,35.17-6.54,50.17,7.62C329.67,274.5,348,287.83,352.17,311.83Z"/><path class="cls-21" d="M275.62,272.93s20.21,2.74,32.54,14.4l6.5,2.66,8.67-6S291,268.25,279.5,266.88Z"/><path class="cls-22" d="M301.5,255a30.87,30.87,0,0,1,18.5-2.5c10.38,1.87,16.38,1.74,22.5,9.25L360,275.83s9.17,7.67,10.83,18.17a408.75,408.75,0,0,1,18,43.33s2.76,18.65,1.17,35l-2.58,16-.67,3H383.5a146.08,146.08,0,0,0-.47-44C377.51,314,359.51,264,301.5,255Z"/><path class="cls-23" d="M326.34,222.49a23.43,23.43,0,0,0,9.54,7.39L334,233.5s-3.37,3.88,14.38,5.38l-3.5,5.38s9.63,1.13,18.5-2.87c0,0-.12,3-6.25,7l22.25,1L374.13,254l23.13,4.25L386.75,263s14.38.13,21.38,4.63c0,0-7.12-.26-10.25,1.06l14,6.57a7.93,7.93,0,0,1-6.37,3.18s5,6.32,15.38,8.82c0,0-5.87,3.57-9.62,4.47,0,0,1.88,8.4,11.88,14.65l-6.25.88s-.62,6.59,8.5,15.67l-6-3.17s-3.25,6.75,7.88,18.75L422.5,337s.88,10,4.13,15.47h-3.5s-.12,5.88,6.75,12.13L426,365.75s-1.87,8.08,6.25,16.42h-6.5s-2.37,4.08,3,11.08c0,0-15.25,3.75-6.75,17l-10.5-5.75s19.83-43.67-10.25-124.19c0,0-11.08-22.06-54.58-32.94C346.67,247.38,324.68,247.14,326.34,222.49Z"/><path class="cls-2" d="M279.5,253s-25.17,22.67-16.33,56.17c0,0,1.77-18.34,4-24,1.75-4.44,10.58-15.92,10.58-15.92Z"/></g><g id="Legs_and_Tail" data-name="Legs and Tail"><path class="cls-2" d="M357.33,438.44s17.33,59.9,87.67,92.9,63.67,80.33,63.67,80.33,7.74,79.58-56.79,58.79c0,0,18.69,22.48,49.29-4.79,14.23-12.68,24.51-13.33,10-75.67s-73.24-82.77-73.24-82.77S382.24,479,381.12,432.64a57.82,57.82,0,0,0-13-.87C362.84,432.14,357.79,433.75,357.33,438.44Z"/><path class="cls-24" d="M397.67,420.25S402.5,413,436.75,427c0,0-7-12.52-46.75-35C390,392,391.83,415,397.67,420.25Z"/><path class="cls-25" d="M422.75,450s-10.5-12-10.5-23,3.66-21.78-15.5-33c-6.25-3.67-10-2.67-10-2.67s-.25-3.81-5.63,41.31c0,0-6.62,23.36,26.13,52.61s73.25,37,95.25,81.13,13.25,100.38-20,110.13-43.32-23.25-34.91-32l-3.84,1s-15,36.29,25.75,47.5c5.22,1.44,34.17,2.67,51.5-26,11.87-19.62,12.51-37.73,7.45-69.33-3.75-23.42-7.45-55.38-37-85.17C475.16,496,427.08,456.54,422.75,450Z"/><path class="cls-26" d="M388.83,392s2.42,2,3.17,7.38.83,14.87,5.67,20.87c0,0-3.91,12.42-12.79,12.33s-22.21,1.54-27.55,5.85-9.21.68-9.21.68L317.5,460l-17.94-49S352,390,360,390.33s24.67-1.58,28.83,1.67"/><path class="cls-24" d="M374.75,425.77s15.35-.08,18.69-15.52c0,0-1.2-11.22-1.94-13.28s-1.5-5.64-4.75-5.64-26.75-1-26.75-1L299.56,411l17.94,49,23.07-29.45S351.83,431.28,374.75,425.77Z"/><path class="cls-27" d="M364.17,446.5l2.08-11.88,8.71-1.51,4.24,7.72-6.2-1.72s6.91,7.89,8.12,12.22l-5.46-2.83L386,464.67l-3.83-2.09L399.67,483l-4.67-.75s24.83,19.08,30.17,20l-7-1.25L448,515.17h-5.5s24,15.72,28.33,16.32H467s21.5,18.33,26,23.83c0,0-34.17-28.83-41.67-30l1.5,2.17s-19.25-10.42-23.75-12.58l.58,3s-20.67-15.67-25-22.25l.33,1.83s-22.17-19.33-22.17-25l.5,3.83s-11.33-17.5-11-24.17L371,455.5,367.06,443Z"/><path class="cls-6" d="M415.74,406.82,424.5,421l-4.38-2.5v7.27l5.88,4.78h-6.5s.5,5.18,6.5,8.57l-1.75,2.39,6,2.67L426,445.55s8.5,6,13.75,4.46l-6.25,3.24L446,460h-6.75s11.5,4.75,13.75,8.25l-4.75.75L461,476l-6,.88,13.5,6.63-.75,2.5,7,2.63-2,.63,8.75,5.25H478l8.5,5.88h-2.87S500.54,517.22,503.5,524s-1.33.75-1.33.75l-2.42-.75S503,536.33,512,543.67l-2.83-.42s10.08,16.58,14.33,18.83l-3.92-.75,7.58,12.92-5.67-4.67,5.67,11.58-3-1.83,4,9.67L524,584.83l4.17,10.5-2.83-2.67s-5.83-25.33-10.67-34-8.08-15.36-23-42.25c-4.44-8-22-23.14-33.18-32.41,0,0-34.56-19-44.69-49l-13.36-39,15.3,10.82"/><path class="cls-28" d="M456,616.67s2.82,4.83-3,11c0,0,2.17,4.33,6.5,4.17A17.64,17.64,0,0,0,456,616.67Z"/><path class="cls-2" d="M443.75,645.5s8.75-11.67,9.25-17.83a9.93,9.93,0,0,0,6.5,4.17s-3.33,6.17-4.83,7.67a67.41,67.41,0,0,1-7.08,5Z"/><path class="cls-2" d="M462.17,634.25l7.5,3.75s-2.08,8.79-23.55,8.64l-2.37-1.14,3.33-4.84S457.67,639.83,462.17,634.25Z"/><path class="cls-23" d="M461.5,616.67s6,3.17.67,17.58l7.5,3.75S473.5,619.5,461.5,616.67Z"/><path class="cls-4" d="M465.87,652l6-7.5s-7.93-7.88-25.72,2.14c0,0-2.83,3.1-1.15,9.38C445,656,451.25,644.17,465.87,652Z"/><path d="M478.5,661.83S475,652.56,466.67,651l5.16-6.5S483.67,653.5,478.5,661.83Z"/><path d="M456.71,665.67s3.12-6.62-2.21-9.64l5.47-2.86S463.92,658.17,456.71,665.67Z"/><path class="cls-29" d="M447.61,652.8s2.47,1,4,5.2c0,0,8-2.67,8.34-4.83l-4-3.83S450,648,447.61,652.8Z"/><path class="cls-30" d="M446.48,661.83s4.63,16.3,25.35,18.14c32,2.83,46.27-38.42,46.27-38.42,8.52-24.9-6.12-73.85-14.62-90.55h0l-20.29-35.68-43-23.22-50.06-60.9-9,1.44s-4.33,15.84,12.31,37.89c15.06,20,38.73,34.13,38.73,34.13s44.83,21,64.61,51.64C498,558.23,529.85,607.23,506,656c0,0-10.85,23.85-37.91,22.16A25.64,25.64,0,0,1,446.48,661.83Z"/><path class="cls-17" d="M391.11,431.2s-5.06,32.9,53.62,69.67C487.17,527.45,504.48,551,504.48,551l-20.29-35.68s-73.74-42-85.42-89.68Z"/></g><g id="Wing_1" data-name="Wing 1"><polygon class="cls-9" points="333.55 582.33 366.25 651 367.06 628 361.33 541.78 335.21 558.25 333.55 582.33"/><polygon class="cls-2" points="348.88 590 359.33 627.67 356.37 579.48 348.88 590"/><polygon class="cls-2" points="374.33 570.25 379.2 552.24 338.56 462.57 333.55 486.5 359.33 549.5 374.33 570.25"/><polygon class="cls-8" points="395 555.33 389.67 575.33 338.56 462.57 342.13 445.55 395 555.33"/><polygon class="cls-8" points="335.21 462.57 351.58 514.33 342.13 521.62 331.53 486.5 335.21 462.57"/><polygon class="cls-31" points="295.69 634.25 288.96 549.5 288.96 486.5 324.25 482.25 318.83 572.5 295.69 634.25"/><polygon class="cls-2" points="308 517.75 313.25 524.29 301.83 615 297.25 607.25 298.75 551 308 517.75"/><polygon class="cls-2" points="344.87 432.58 392 527 387 543.67 342.13 445.55 344.87 432.58"/><polygon class="cls-32" points="331.5 599.33 321.25 611.67 321.81 528.84 335.21 558.25 331.5 599.33"/><polygon class="cls-33" points="348.88 590 359.33 575.33 328.67 499.67 324.25 497.5 321.81 528.84 348.88 590"/><polygon class="cls-34" points="357.33 543.75 348.88 564 328.67 499.67 332.07 484 357.33 543.75"/><polygon class="cls-3" points="242 516 218.33 637.67 263.67 560.67 294.22 486.5 250 477.75 242 516"/><polygon class="cls-2" points="265 509 241 550 232 590 255 548 265 509"/><polygon class="cls-35" points="179 430.55 70.33 499.67 189.5 471.5 204.81 454.18 179 430.55"/><polygon class="cls-2" points="174.5 453.33 156.33 453.33 110.67 477.75 102 486.5 130 477.75 174.5 453.33"/><polygon class="cls-36" points="215 484 231.25 486.5 330.25 367.53 288.31 389.6 215 484"/><polygon class="cls-37" points="265 502.25 280.5 497.5 339.59 376.5 333.55 370.17 265 502.25"/><polygon class="cls-36" points="174.5 443 186 449 226.25 422.25 182.16 433.36 174.5 443"/><polygon class="cls-38" points="279.37 511.83 295.69 484 339.59 376.5 344.87 383.5 293.33 509.67 279.37 511.83"/><polygon class="cls-38" points="301.83 511.83 311.42 508 348.88 389.66 344.87 383.5 301.83 511.83"/><polygon class="cls-26" points="318.83 512.5 327.25 506.17 351.58 394.36 347.48 387.52 318.83 488.17 318.83 512.5"/><polygon class="cls-36" points="189.5 471.5 209.25 469.75 218.47 462.99 288.31 389.6 238.91 415.59 189.5 471.5"/><polygon class="cls-39" points="219.03 505.04 214.05 521.33 196 580.33 242 516 255 480 230.75 468.25 219.03 505.04"/><polygon class="cls-40" points="220.85 515.67 223.2 542.29 228.7 534.6 228.7 505.67 221.43 497.5 214.05 521.33 220.85 515.67"/><path class="cls-33" d="M337.14,281.56,331.5,339.5s15.75-11,34.75,4c0,0-6.4-34.8-10.25-43C352.57,293.21,337.14,281.56,337.14,281.56Z"/><path class="cls-41" d="M366.25,343.5,352.5,396s-19.25-37.25-35-31.25l14-25.25S349,327.75,366.25,343.5Z"/><path class="cls-18" d="M341.88,376.5s9.38-14.25-10.37-37c0,0,12.5-6.5,21.25-2.25C352.75,337.25,347.75,377,341.88,376.5Z"/><path class="cls-2" d="M317.5,364.75l-145,60L184,435l42.25-12.75,104-54.72A10.85,10.85,0,0,0,317.5,364.75Z"/><polygon class="cls-42" points="193 443.25 206.5 455.75 257.82 405.64 226.25 422.25 217.68 424.84 193 443.25"/><polygon class="cls-20" points="238.91 495 251.37 492.25 262.56 481.69 288.83 449 333.55 370.17 311.42 377.44 238.91 495"/><polygon class="cls-43" points="215 461.5 230.75 468.25 304.42 381.12 279.01 394.49 254 422.5 215 461.5"/><polygon class="cls-44" points="237.5 472.75 250 477.75 265.75 459.25 314.75 389.25 321.25 372.27 307.49 379.5 237.5 472.75"/><polygon class="cls-19" points="257.82 480.75 274.25 484 292 458.25 333.55 370.17 330.25 367.53 321.25 372.27 314.75 389.25 280.75 457 257.82 480.75"/><polygon class="cls-7" points="335.75 372.27 297.75 455.75 283.25 486.5 296.75 486.5 339.59 376.5 335.75 372.27"/><polygon class="cls-10" points="298.75 497.5 308 497.5 344.87 383.5 341.88 379.38 298.75 497.5"/><polygon class="cls-39" points="311.42 495 319.75 493 348.88 389.66 346.08 385.28 311.42 495"/><polygon class="cls-45" points="327.25 486.5 333.55 486.5 352.5 396 350.11 391.73 330.25 465 327.25 486.5"/><polygon class="cls-39" points="185.14 472.53 133.67 525.67 131.67 532.67 196 492.67 220.85 464.01 204.81 454.18 185.14 472.53"/><polygon class="cls-18" points="183 486.5 183 482.67 174.03 484 185.14 472.53 185.14 475.67 189.5 476.67 189.5 491.33 196 492.67 183.19 500.63 183 486.5"/><polygon class="cls-35" points="135.33 593.67 158.67 549.67 172.5 524.33 196 492.67 220.85 464.01 245.09 475.78 220.85 503.33 176.26 545 135.33 593.67"/><polygon class="cls-7" points="211 486.58 208 502.25 161.67 556.67 176.26 524.67 211 486.58"/><polygon class="cls-39" points="280.46 519.89 274.67 590 277.56 597.67 290.67 542.29 295.69 509 279.37 511.83 280.46 519.89"/><polygon class="cls-40" points="285.18 546.67 281.33 540.33 278.51 543.5 279.37 533.08 281.84 531.33 288.31 543.67 290.67 542.29 288.31 552.24 285.18 546.67"/></g></svg>